<?xml version="1.0" encoding="UTF-8" standalone="no"?>
<svg
   xmlns:dc="http://purl.org/dc/elements/1.1/"
   xmlns:cc="http://creativecommons.org/ns#"
   xmlns:rdf="http://www.w3.org/1999/02/22-rdf-syntax-ns#"
   xmlns:svg="http://www.w3.org/2000/svg"
   xmlns="http://www.w3.org/2000/svg"
   xmlns:sodipodi="http://sodipodi.sourceforge.net/DTD/sodipodi-0.dtd"
   xmlns:inkscape="http://www.inkscape.org/namespaces/inkscape"
   width="39.853786mm"
   height="38.085907mm"
   viewBox="0 0 39.853787 38.085907"
   version="1.1"
   id="svg4282"
   inkscape:version="1.0.1 (3bc2e813f5, 2020-09-07)"
   sodipodi:docname="icon_manual.svg">
  <defs
     id="defs4276">
    <filter
       height="1.1365677"
       y="-0.068283834"
       width="1.3679469"
       x="-0.18397348"
       id="filter5033-3-7"
       style="color-interpolation-filters:sRGB"
       inkscape:collect="always">
      <feGaussianBlur
         id="feGaussianBlur5035-0-3"
         stdDeviation="0.62971388"
         inkscape:collect="always" />
    </filter>
  </defs>
  <sodipodi:namedview
     id="base"
     pagecolor="#ffffff"
     bordercolor="#666666"
     borderopacity="1.0"
     inkscape:pageopacity="0.0"
     inkscape:pageshadow="2"
     inkscape:zoom="1.4"
     inkscape:cx="231.95863"
     inkscape:cy="-21.015106"
     inkscape:document-units="mm"
     inkscape:current-layer="g5215"
     inkscape:document-rotation="0"
     showgrid="false"
     fit-margin-top="0"
     fit-margin-left="0"
     fit-margin-right="0"
     fit-margin-bottom="0"
     inkscape:window-width="1438"
     inkscape:window-height="1040"
     inkscape:window-x="744"
     inkscape:window-y="158"
     inkscape:window-maximized="0" />
  <metadata
     id="metadata4279">
    <rdf:RDF>
      <cc:Work
         rdf:about="">
        <dc:format>image/svg+xml</dc:format>
        <dc:type
           rdf:resource="http://purl.org/dc/dcmitype/StillImage" />
        <dc:title></dc:title>
      </cc:Work>
    </rdf:RDF>
  </metadata>
  <g
     inkscape:label="Calque 1"
     inkscape:groupmode="layer"
     id="layer1"
     transform="translate(-276.49193,-185.43206)">
    <g
       transform="translate(-68.703644,430.08545)"
       id="g5215">
      <g
         transform="translate(113.55131,-75.749551)"
         id="g5610">
        <circle
           r="19.042953"
           cy="-149.86089"
           cx="252.45509"
           id="circle5398"
           style="opacity:1;vector-effect:none;fill:#d47500;fill-opacity:1;fill-rule:nonzero;stroke:none;stroke-width:0.529167;stroke-linecap:butt;stroke-linejoin:miter;stroke-miterlimit:4;stroke-dasharray:none;stroke-dashoffset:0;stroke-opacity:1" />
        <circle
           style="opacity:1;vector-effect:none;fill:#ffffff;fill-opacity:1;fill-rule:nonzero;stroke:none;stroke-width:0.447471;stroke-linecap:butt;stroke-linejoin:miter;stroke-miterlimit:4;stroke-dasharray:none;stroke-dashoffset:0;stroke-opacity:1"
           id="circle5400"
           cx="252.30565"
           cy="-149.86089"
           r="16.102989" />
        <circle
           r="14.633007"
           cy="-149.86089"
           cx="252.45509"
           id="circle5402"
           style="opacity:1;vector-effect:none;fill:#ffcb1e;fill-opacity:1;fill-rule:nonzero;stroke:none;stroke-width:0.406623;stroke-linecap:butt;stroke-linejoin:miter;stroke-miterlimit:4;stroke-dasharray:none;stroke-dashoffset:0;stroke-opacity:1" />
        <g
           id="g5447"
           transform="matrix(0.86174936,0,0,0.86174936,33.295491,-18.612709)">
          <path
             style="color:#000000;font-style:normal;font-variant:normal;font-weight:normal;font-stretch:normal;font-size:medium;line-height:normal;font-family:sans-serif;font-variant-ligatures:normal;font-variant-position:normal;font-variant-caps:normal;font-variant-numeric:normal;font-variant-alternates:normal;font-feature-settings:normal;text-indent:0;text-align:start;text-decoration:none;text-decoration-line:none;text-decoration-style:solid;text-decoration-color:#000000;letter-spacing:normal;word-spacing:normal;text-transform:none;writing-mode:lr-tb;direction:ltr;text-orientation:mixed;dominant-baseline:auto;baseline-shift:baseline;text-anchor:start;white-space:normal;shape-padding:0;clip-rule:nonzero;display:inline;overflow:visible;visibility:visible;opacity:0.45;isolation:auto;mix-blend-mode:normal;color-interpolation:sRGB;color-interpolation-filters:linearRGB;solid-color:#000000;solid-opacity:1;vector-effect:none;fill:#000000;fill-opacity:1;fill-rule:nonzero;stroke:none;stroke-width:2.85299;stroke-linecap:round;stroke-linejoin:round;stroke-miterlimit:4;stroke-dasharray:none;stroke-dashoffset:0;stroke-opacity:1;paint-order:fill markers stroke;filter:url(#filter5033-3-7);color-rendering:auto;image-rendering:auto;shape-rendering:auto;text-rendering:auto;enable-background:accumulate"
             d="m 251.44604,-170.71043 c -1.87969,0 -3.43164,1.55191 -3.43164,3.43164 v 0.0703 c -0.48256,-0.26091 -1.00807,-0.44727 -1.58984,-0.44727 -1.8797,0 -3.42969,1.5519 -3.42969,3.43164 v 16.29102 l -0.75976,-0.75977 c -1.51559,-1.51562 -4.01371,-1.51562 -5.5293,0 -1.51562,1.51559 -1.51562,4.01371 0,5.5293 l 5.83789,5.83789 c -0.14858,-0.14858 -0.0337,-0.0335 0.0625,0.0977 0.0962,0.1312 0.23398,0.31993 0.4043,0.53907 0.34063,0.43827 0.81549,1.00137 1.43945,1.5625 1.24793,1.12224 3.1687,2.26172 5.67578,2.26172 h 7.65821 c 3.91995,0 7.13281,-3.21285 7.13281,-7.13282 v -19.1582 c -6e-5,-2.01693 -1.81105,-3.65062 -3.84571,-3.40625 -0.47698,0.0573 -0.78756,0.40396 -1.17578,0.63281 v -2.9414 c 0,-1.71102 -1.25694,-3.24387 -3.01562,-3.45508 -0.77917,-0.0936 -1.48705,0.15019 -2.11133,0.52344 -0.26456,-1.62575 -1.62752,-2.90821 -3.32227,-2.90821 z"
             id="path5422"
             inkscape:connector-curvature="0"
             sodipodi:nodetypes="cscsscccccsccssscccscccc" />
          <path
             sodipodi:nodetypes="cscsscccccsccssscccscccc"
             inkscape:connector-curvature="0"
             id="path5418"
             d="m 253.45056,-172.71495 c -1.87969,0 -3.43164,1.55191 -3.43164,3.43164 v 0.0703 c -0.48256,-0.26091 -1.00807,-0.44727 -1.58984,-0.44727 -1.8797,0 -3.42969,1.5519 -3.42969,3.43164 v 16.29102 l -0.75976,-0.75977 c -1.51559,-1.51562 -4.01371,-1.51562 -5.5293,0 -1.51562,1.51559 -1.51562,4.01371 0,5.5293 l 5.83789,5.83789 c -0.14858,-0.14858 -0.0337,-0.0335 0.0625,0.0977 0.0962,0.1312 0.23398,0.31993 0.4043,0.53907 0.34063,0.43827 0.81549,1.00137 1.43945,1.5625 1.24793,1.12224 3.1687,2.26172 5.67578,2.26172 h 7.65821 c 3.91995,0 7.13281,-3.21285 7.13281,-7.13282 v -19.1582 c -6e-5,-2.01693 -1.81105,-3.65062 -3.84571,-3.40625 -0.47698,0.0573 -0.78756,0.40396 -1.17578,0.63281 v -2.9414 c 0,-1.71102 -1.25694,-3.24387 -3.01562,-3.45508 -0.77917,-0.0936 -1.48705,0.15019 -2.11133,0.52344 -0.26456,-1.62575 -1.62752,-2.90821 -3.32227,-2.90821 z"
             style="color:#000000;font-style:normal;font-variant:normal;font-weight:normal;font-stretch:normal;font-size:medium;line-height:normal;font-family:sans-serif;font-variant-ligatures:normal;font-variant-position:normal;font-variant-caps:normal;font-variant-numeric:normal;font-variant-alternates:normal;font-feature-settings:normal;text-indent:0;text-align:start;text-decoration:none;text-decoration-line:none;text-decoration-style:solid;text-decoration-color:#000000;letter-spacing:normal;word-spacing:normal;text-transform:none;writing-mode:lr-tb;direction:ltr;text-orientation:mixed;dominant-baseline:auto;baseline-shift:baseline;text-anchor:start;white-space:normal;shape-padding:0;clip-rule:nonzero;display:inline;overflow:visible;visibility:visible;opacity:1;isolation:auto;mix-blend-mode:normal;color-interpolation:sRGB;color-interpolation-filters:linearRGB;solid-color:#000000;solid-opacity:1;vector-effect:none;fill:#ffffff;fill-opacity:1;fill-rule:nonzero;stroke:none;stroke-width:3.175;stroke-linecap:butt;stroke-linejoin:miter;stroke-miterlimit:4;stroke-dasharray:none;stroke-dashoffset:0;stroke-opacity:1;color-rendering:auto;image-rendering:auto;shape-rendering:auto;text-rendering:auto;enable-background:accumulate" />
          <path
             sodipodi:nodetypes="cssccsscsssssccsssssccsccccsssscc"
             style="stroke-width:0.0216683"
             id="path2-5"
             d="m 263.26486,-162.98965 c -0.93375,0.11213 -1.61849,0.93799 -1.61849,1.87843 v 8.57419 c 0,0.36821 -0.2985,0.66671 -0.66672,0.66671 v 0 c -0.36822,0 -0.66671,-0.2985 -0.66671,-0.66671 v -14.33786 c 0,-0.94045 -0.68474,-1.76631 -1.61848,-1.87845 -1.11304,-0.13366 -2.06807,0.74193 -2.06807,1.82976 v 14.38657 c 0,0.36821 -0.2985,0.66671 -0.66672,0.66671 -0.3682,0 -0.66669,-0.2985 -0.66669,-0.66671 v -16.74637 c 0,-1.0138 -0.82948,-1.84328 -1.84328,-1.84328 v 0 c -1.0138,0 -1.84329,0.82946 -1.84329,1.84328 v 16.74635 c 0,0.36821 -0.2985,0.66671 -0.66671,0.66671 -0.3682,0 -0.66671,-0.2985 -0.66671,-0.66671 v -13.69249 c 0,-1.01379 -0.82946,-1.84328 -1.84328,-1.84328 v 0 c -1.01378,0 -1.84328,0.82947 -1.84328,1.84328 v 20.12263 l -3.46882,-3.46883 c -0.90329,-0.90331 -2.38143,-0.90331 -3.28472,0 -0.90331,0.90329 -0.90331,2.38143 0,3.28472 l 5.83815,5.83815 c 0.38368,0.38368 2.38318,3.99544 6.45966,3.99544 h 7.65799 c 3.062,0 5.54426,-2.48225 5.54426,-5.54427 v -19.15823 c -3e-5,-1.08782 -0.95505,-1.96342 -2.06809,-1.82974 z"
             inkscape:connector-curvature="0" />
        </g>
      </g>
    </g>
  </g>
</svg>
